<svg width="18" height="18" viewBox="0 0 18 18" fill="none" xmlns="http://www.w3.org/2000/svg">
<path d="M9.75 8.25C10.195 8.25 10.63 8.11804 11 7.87081C11.37 7.62357 11.6584 7.27217 11.8287 6.86104C11.999 6.4499 12.0436 5.9975 11.9568 5.56105C11.87 5.12459 11.6557 4.72368 11.341 4.40901C11.0263 4.09434 10.6254 3.88005 10.189 3.79323C9.7525 3.70642 9.3001 3.75097 8.88896 3.92127C8.47783 4.09157 8.12643 4.37996 7.87919 4.74997C7.63196 5.11998 7.5 5.55499 7.5 6C7.5 6.59674 7.73705 7.16903 8.15901 7.59099C8.58097 8.01295 9.15326 8.25 9.75 8.25ZM9.75 5.25C9.89834 5.25 10.0433 5.29399 10.1667 5.3764C10.29 5.45881 10.3861 5.57594 10.4429 5.71299C10.4997 5.85003 10.5145 6.00083 10.4856 6.14632C10.4566 6.2918 10.3852 6.42544 10.2803 6.53033C10.1754 6.63522 10.0418 6.70665 9.89632 6.73559C9.75083 6.76453 9.60003 6.74968 9.46299 6.69291C9.32594 6.63614 9.20881 6.54002 9.1264 6.41668C9.04399 6.29334 9 6.14834 9 6C9 5.80109 9.07902 5.61032 9.21967 5.46967C9.36032 5.32902 9.55109 5.25 9.75 5.25ZM12.8325 8.145C13.2713 7.51577 13.5065 6.76711 13.5065 6C13.5065 5.23289 13.2713 4.48423 12.8325 3.855C13.0482 3.78556 13.2734 3.75014 13.5 3.75C14.0967 3.75 14.669 3.98705 15.091 4.40901C15.5129 4.83097 15.75 5.40326 15.75 6C15.75 6.59674 15.5129 7.16903 15.091 7.59099C14.669 8.01295 14.0967 8.25 13.5 8.25C13.2734 8.24987 13.0482 8.21444 12.8325 8.145ZM9.75 9.75C5.25 9.75 5.25 12.75 5.25 12.75V14.25H14.25V12.75C14.25 12.75 14.25 9.75 9.75 9.75ZM6.75 12.75C6.75 12.5325 6.99 11.25 9.75 11.25C12.375 11.25 12.705 12.42 12.75 12.75M18 12.75V14.25H15.75V12.75C15.7325 12.1925 15.6041 11.644 15.3723 11.1367C15.1405 10.6293 14.81 10.1732 14.4 9.795C18 10.1625 18 12.75 18 12.75ZM6 9H3.75V11.25H2.25V9H0V7.5H2.25V5.25H3.75V7.5H6V9Z" fill="#7D7F83"/>
</svg>
