<svg width="25" height="20" viewBox="0 0 25 20" fill="none" xmlns="http://www.w3.org/2000/svg">
<path d="M1.4803 1.42291L2.90494 0.0273438L21.5142 18.4004L20.1007 19.807L16.6727 16.4225C15.3927 16.8401 14.0349 17.0598 12.6102 17.0598C7.04527 17.0598 2.29279 13.6423 0.36731 8.8183C1.13528 6.88429 2.35957 5.18104 3.91776 3.82943L1.4803 1.42291ZM12.6102 5.52169C13.4958 5.52169 14.3451 5.86901 14.9713 6.48725C15.5974 7.10548 15.9492 7.94399 15.9492 8.8183C15.9498 9.19254 15.8858 9.56414 15.76 9.91717L11.4972 5.7085C11.8548 5.58431 12.2312 5.52114 12.6102 5.52169ZM12.6102 0.576779C18.1752 0.576779 22.9277 3.99426 24.8532 8.8183C23.9448 11.0965 22.4012 13.0739 20.4012 14.5214L18.8207 12.9501C20.3599 11.8989 21.6012 10.4766 22.4268 8.8183C21.5271 7.0051 20.1301 5.47749 18.3948 4.40909C16.6594 3.3407 14.6553 2.77439 12.6102 2.77452C11.3971 2.77452 10.2062 2.97232 9.09318 3.32395L7.37917 1.64268C8.98188 0.961383 10.7515 0.576779 12.6102 0.576779ZM2.79364 8.8183C3.69342 10.6315 5.09038 12.1591 6.82571 13.2275C8.56105 14.2959 10.5652 14.8622 12.6102 14.8621C13.3782 14.8621 14.135 14.7852 14.8362 14.6313L12.2986 12.1149C11.5241 12.033 10.8014 11.6917 10.2507 11.1479C9.6999 10.6042 9.35427 9.89062 9.27126 9.12599L5.48708 5.37884C4.38522 6.31288 3.46143 7.47768 2.79364 8.8183Z" fill="#98C4CA"/>
</svg>
