<svg width="24" height="23" viewBox="0 0 24 23" fill="none" xmlns="http://www.w3.org/2000/svg">
<g clip-path="url(#clip0_122_967)">
<path d="M16.3509 11.3405L22.1723 6.28292V16.3403L16.3509 11.3405ZM8.84978 12.197L10.894 13.9715C11.2148 14.244 11.6331 14.4087 12.0903 14.4087H12.1063H12.1186C12.5767 14.4087 12.995 14.2431 13.3196 13.9686L13.3168 13.9705L15.361 12.196L21.5751 17.5328H2.63856L8.84978 12.197ZM2.63004 5.08383H21.5864L12.4811 12.9919C12.3787 13.0729 12.252 13.1169 12.1215 13.1169H12.1082H12.0959C11.9649 13.117 11.8378 13.0727 11.7354 12.991L11.7363 12.9919L2.63004 5.08383ZM2.04232 6.28197L7.86268 11.3395L2.04232 16.3365V6.28197ZM22.4846 3.97181C22.2574 3.85824 21.9905 3.79199 21.7076 3.79199H2.50985C2.23554 3.79206 1.96501 3.85588 1.7196 3.97843L1.73001 3.9737C1.43622 4.11861 1.18881 4.34278 1.01572 4.62089C0.84263 4.89901 0.75076 5.21998 0.750488 5.54756V17.0671C0.750989 17.5334 0.936411 17.9803 1.26607 18.31C1.59573 18.6396 2.04269 18.8251 2.5089 18.8256H21.7047C22.1709 18.8251 22.6179 18.6396 22.9476 18.31C23.2772 17.9803 23.4626 17.5334 23.4631 17.0671V5.54756C23.4631 4.85953 23.0666 4.2633 22.4893 3.97654L22.4789 3.97181H22.4846Z" fill="#D5EBE9"/>
</g>
<defs>
<clipPath id="clip0_122_967">
<rect width="22.7136" height="22.7136" fill="white" transform="translate(0.750488 0.00634766)"/>
</clipPath>
</defs>
</svg>
