<svg width="26" height="19" viewBox="0 0 26 19" fill="none" xmlns="http://www.w3.org/2000/svg">
<path d="M6.61707 14.9226C8.89073 16.6554 10.8017 17.2102 12.9999 17.2102C14.9122 17.2102 17.4081 16.4337 19.8092 14.7795C21.5408 13.5863 22.972 11.8471 24.0991 9.54813C22.8771 7.48093 21.4628 5.78867 19.8573 4.465C17.6343 2.63087 15.2008 1.7898 12.9518 1.7898C10.6249 1.7898 7.94695 2.8006 5.66159 4.92353C4.01583 6.45113 2.76915 7.98887 1.91767 9.53167C3.30214 11.7977 4.86991 13.5926 6.61707 14.9226ZM12.9999 19C10.4338 19 8.14454 18.335 5.5368 16.3476C3.48674 14.7871 1.68368 12.673 0.123709 10.0143C0.0475288 9.88417 0.00521008 9.73788 0.000451204 9.58817C-0.00430767 9.43847 0.0286382 9.2899 0.0964091 9.15547C1.05059 7.26433 2.50266 5.4188 4.44742 3.61127C7.06946 1.17547 10.1829 0 12.9518 0C15.6077 0 18.4416 0.981667 20.9909 3.08307C22.8745 4.636 24.5047 6.63227 25.8827 9.06427C26.0257 9.31507 26.0387 9.62033 25.9178 9.88127C24.6334 12.6679 22.9343 14.7985 20.8206 16.2551C18.1218 18.1133 15.2736 19 12.9986 19M13.3028 14.44C12.6712 14.44 12.0457 14.3188 11.4622 14.0832C10.8786 13.8477 10.3484 13.5025 9.90172 13.0673C9.45508 12.6321 9.10079 12.1155 8.85907 11.5468C8.61734 10.9782 8.49293 10.3688 8.49293 9.75333C8.49293 9.13787 8.61734 8.52844 8.85907 7.95982C9.10079 7.39121 9.45508 6.87456 9.90172 6.43936C10.3484 6.00416 10.8786 5.65895 11.4622 5.42342C12.0457 5.18789 12.6712 5.06667 13.3028 5.06667C14.5785 5.06667 15.8019 5.56044 16.7039 6.43936C17.606 7.31828 18.1127 8.51035 18.1127 9.75333C18.1127 10.9963 17.606 12.1884 16.7039 13.0673C15.8019 13.9462 14.5785 14.44 13.3028 14.44ZM13.3028 12.6667C13.6955 12.6667 14.0843 12.5913 14.447 12.4449C14.8098 12.2985 15.1394 12.0839 15.417 11.8134C15.6947 11.5428 15.9149 11.2217 16.0652 10.8682C16.2154 10.5148 16.2928 10.1359 16.2928 9.75333C16.2928 9.37075 16.2154 8.99191 16.0652 8.63845C15.9149 8.28499 15.6947 7.96382 15.417 7.6933C15.1394 7.42277 14.8098 7.20817 14.447 7.06176C14.0843 6.91536 13.6955 6.84 13.3028 6.84C12.5099 6.84 11.7493 7.14694 11.1886 7.6933C10.6279 8.23965 10.3129 8.98067 10.3129 9.75333C10.3129 10.526 10.6279 11.267 11.1886 11.8134C11.7493 12.3597 12.5099 12.6667 13.3028 12.6667Z" fill="#98C4CA"/>
</svg>
