<svg width="24" height="24" viewBox="0 0 24 24" fill="none" xmlns="http://www.w3.org/2000/svg">
<g clip-path="url(#clip0_122_971)">
<path d="M23.6736 12.1456C23.6736 5.87347 18.5889 0.788818 12.3168 0.788818C6.04461 0.788818 0.959961 5.87347 0.959961 12.1456C0.959961 17.8141 5.113 22.5125 10.5423 23.3645V15.4284H7.6587V12.1456H10.5423V9.64357C10.5423 6.79728 12.2378 5.22507 14.8319 5.22507C16.0744 5.22507 17.3741 5.44688 17.3741 5.44688V8.24172H15.9421C14.5312 8.24172 14.0913 9.11717 14.0913 10.0153V12.1456H17.241L16.7375 15.4284H14.0913V23.3645C19.5205 22.5125 23.6736 17.8142 23.6736 12.1456Z" fill="#1877F2"/>
<path d="M16.7375 15.4285L17.241 12.1456H14.0913V10.0154C14.0913 9.11711 14.5312 8.24175 15.9421 8.24175H17.3741V5.44691C17.3741 5.44691 16.0744 5.2251 14.8318 5.2251C12.2378 5.2251 10.5423 6.7973 10.5423 9.6436V12.1456H7.65869V15.4285H10.5423V23.3645C11.1293 23.4565 11.7226 23.5026 12.3168 23.5024C12.9109 23.5026 13.5042 23.4565 14.0913 23.3645V15.4285H16.7375Z" fill="white"/>
</g>
<defs>
<clipPath id="clip0_122_971">
<rect width="22.7136" height="22.7136" fill="white" transform="translate(0.959961 0.788818)"/>
</clipPath>
</defs>
</svg>
