<svg width="24" height="24" viewBox="0 0 24 24" fill="none" xmlns="http://www.w3.org/2000/svg">
<g clip-path="url(#clip0_122_959)">
<path d="M8.60685 1.50707C6.33741 2.29436 4.38025 3.78866 3.02284 5.77049C1.66543 7.75231 0.979327 10.1172 1.0653 12.5178C1.15128 14.9184 2.00481 17.2281 3.50051 19.1077C4.99622 20.9874 7.05526 22.3379 9.37521 22.9608C11.256 23.4461 13.2266 23.4674 15.1175 23.0229C16.8305 22.6381 18.4141 21.8151 19.7134 20.6344C21.0658 19.368 22.0473 17.757 22.5526 15.9746C23.1017 14.0362 23.1994 11.9978 22.8383 10.0158H12.2765V14.397H18.3932C18.271 15.0958 18.009 15.7627 17.623 16.3579C17.237 16.9531 16.7349 17.4643 16.1467 17.8609C15.3999 18.3551 14.5579 18.6876 13.6748 18.8368C12.7893 19.0015 11.8809 19.0015 10.9953 18.8368C10.0977 18.6515 9.24858 18.281 8.50216 17.7491C7.30286 16.9001 6.40235 15.6941 5.92913 14.303C5.44805 12.8858 5.44805 11.3495 5.92913 9.9324C6.26598 8.93906 6.82283 8.03463 7.55812 7.28662C8.39958 6.41489 9.46488 5.79177 10.6372 5.48564C11.8094 5.1795 13.0434 5.20217 14.2036 5.55116C15.11 5.82926 15.9389 6.3154 16.624 6.97076C17.3137 6.28462 18.0022 5.5967 18.6896 4.90701C19.0445 4.53614 19.4313 4.18302 19.7809 3.80327C18.7349 2.82999 17.5071 2.07261 16.168 1.5745C13.7293 0.689009 11.0609 0.665212 8.60685 1.50707Z" fill="white"/>
<path d="M8.60681 1.50696C11.0607 0.664526 13.7291 0.687696 16.168 1.57261C17.5073 2.07411 18.7345 2.83514 19.7791 3.81203C19.4242 4.19178 19.0497 4.54668 18.6877 4.91577C17.9992 5.6031 17.3113 6.28805 16.624 6.97064C15.9389 6.31528 15.11 5.82915 14.2036 5.55104C13.0437 5.20083 11.8098 5.17685 10.6372 5.48174C9.46464 5.78662 8.39869 6.40859 7.55631 7.27941C6.82102 8.02742 6.26416 8.93185 5.92732 9.92519L2.24878 7.07711C3.56547 4.46605 5.84525 2.46878 8.60681 1.50696Z" fill="#E33629"/>
<path d="M1.27277 9.8986C1.47034 8.91867 1.7986 7.96971 2.24874 7.07715L5.92728 9.93232C5.4462 11.3495 5.4462 12.8858 5.92728 14.3029C4.70169 15.2493 3.47551 16.2004 2.24874 17.1563C1.1222 14.9139 0.778627 12.359 1.27277 9.8986Z" fill="#F8BD00"/>
<path d="M12.2765 10.0139H22.8384C23.1995 11.9959 23.1017 14.0343 22.5527 15.9727C22.0474 17.7551 21.0658 19.3661 19.7135 20.6325C18.5263 19.7062 17.3339 18.787 16.1467 17.8608C16.7353 17.4638 17.2376 16.952 17.6237 16.3562C18.0097 15.7604 18.2714 15.0928 18.3932 14.3934H12.2765C12.2748 12.9347 12.2765 11.4743 12.2765 10.0139Z" fill="#587DBD"/>
<path d="M2.24707 17.1564C3.47384 16.21 4.70002 15.2588 5.92561 14.303C6.39977 15.6945 7.30156 16.9007 8.50218 17.7491C9.25093 18.2785 10.1019 18.646 11.0007 18.828C11.8863 18.9927 12.7946 18.9927 13.6802 18.828C14.5632 18.6787 15.4052 18.3462 16.1521 17.852C17.3392 18.7783 18.5317 19.6975 19.7188 20.6237C18.4197 21.8051 16.836 22.6287 15.1228 23.014C13.2319 23.4585 11.2614 23.4372 9.38056 22.9519C7.893 22.5547 6.50352 21.8545 5.29921 20.8952C4.02464 19.8831 2.98355 18.6078 2.24707 17.1564Z" fill="#319F43"/>
</g>
<defs>
<clipPath id="clip0_122_959">
<rect width="22.7136" height="22.7136" fill="white" transform="translate(0.694336 0.76001)"/>
</clipPath>
</defs>
</svg>
