<svg width="15" height="15" viewBox="0 0 15 15" fill="none" xmlns="http://www.w3.org/2000/svg">
<g clip-path="url(#clip0_140_1695)">
<path d="M10.179 11.2504V13.3933C10.179 13.6774 10.0661 13.95 9.86518 14.1509C9.66424 14.3518 9.39172 14.4647 9.10756 14.4647H1.60756C1.3234 14.4647 1.05088 14.3518 0.849947 14.1509C0.649015 13.95 0.536133 13.6774 0.536133 13.3933V1.60756C0.536133 1.3234 0.649015 1.05088 0.849947 0.849947C1.05088 0.649015 1.3234 0.536133 1.60756 0.536133H9.10756C9.39172 0.536133 9.66424 0.649015 9.86518 0.849947C10.0661 1.05088 10.179 1.3234 10.179 1.60756V3.75042M6.9647 7.50042H14.4647M14.4647 7.50042L12.3218 5.35756M14.4647 7.50042L12.3218 9.64328" stroke="#808080" stroke-width="1.28571" stroke-linecap="round" stroke-linejoin="round"/>
</g>
<defs>
<clipPath id="clip0_140_1695">
<rect width="15" height="15" fill="white"/>
</clipPath>
</defs>
</svg>
