<svg width="18" height="18" viewBox="0 0 18 18" fill="none" xmlns="http://www.w3.org/2000/svg">
<path d="M9.9449 2.24969C6.1274 2.14469 2.9999 5.21219 2.9999 8.99969H1.6574C1.3199 8.99969 1.1549 9.40469 1.3949 9.63719L3.4874 11.7372C3.6374 11.8872 3.8699 11.8872 4.0199 11.7372L6.1124 9.63719C6.16423 9.58432 6.19924 9.51729 6.21304 9.44455C6.22683 9.37181 6.21878 9.29661 6.18991 9.22843C6.16104 9.16026 6.11263 9.10216 6.05079 9.06145C5.98894 9.02074 5.91644 8.99925 5.8424 8.99969H4.4999C4.4999 6.07469 6.8849 3.71219 9.8249 3.74969C12.6149 3.78719 14.9624 6.13469 14.9999 8.92469C15.0374 11.8572 12.6749 14.2497 9.7499 14.2497C8.5424 14.2497 7.4249 13.8372 6.5399 13.1397C6.39625 13.0265 6.21601 12.9701 6.03348 12.9812C5.85094 12.9922 5.67883 13.07 5.5499 13.1997C5.2349 13.5147 5.2574 14.0472 5.6099 14.3172C6.78824 15.249 8.24763 15.754 9.7499 15.7497C13.5374 15.7497 16.6049 12.6222 16.4999 8.80469C16.4024 5.28719 13.4624 2.34719 9.9449 2.24969ZM9.5624 5.99969C9.2549 5.99969 8.9999 6.25469 8.9999 6.56219V9.32219C8.9999 9.58469 9.1424 9.83219 9.3674 9.96719L11.7074 11.3547C11.9774 11.5122 12.3224 11.4222 12.4799 11.1597C12.6374 10.8897 12.5474 10.5447 12.2849 10.3872L10.1249 9.10469V6.55469C10.1249 6.25469 9.8699 5.99969 9.5624 5.99969Z" fill="#7D7F83"/>
</svg>
